<svg xmlns="http://www.w3.org/2000/svg" width="1200" height="320" viewBox="0 0 1200 320">

<rect width="1200" height="320" rx="18" fill="#090909"/>
<rect x="4" y="4" width="1192" height="312" rx="18"
stroke="#ff1e1e"
stroke-width="2"
fill="none"/>

<text x="40" y="50"
fill="#ff1e1e"
font-size="30"
font-family="Arial"
font-weight="bold">

🔥 COMMIT ACTIVITY

</text>

<text x="40" y="90"
fill="#888"
font-size="16">

BUILD. COMMIT. IMPROVE.

</text>

<!-- Month labels -->

<text x="120" y="120" fill="#999" font-size="14">Jan</text>
<text x="250" y="120" fill="#999" font-size="14">Mar</text>
<text x="380" y="120" fill="#999" font-size="14">May</text>
<text x="510" y="120" fill="#999" font-size="14">Jul</text>
<text x="640" y="120" fill="#999" font-size="14">Sep</text>
<text x="770" y="120" fill="#999" font-size="14">Nov</text>

<!-- Heatmap -->

<g transform="translate(120,140)">

<!-- Row 1 -->
<rect x="0" y="0" width="18" height="18" fill="#1a1a1a"/>
<rect x="24" y="0" width="18" height="18" fill="#330000"/>
<rect x="48" y="0" width="18" height="18" fill="#550000"/>
<rect x="72" y="0" width="18" height="18" fill="#770000"/>
<rect x="96" y="0" width="18" height="18" fill="#990000"/>
<rect x="120" y="0" width="18" height="18" fill="#bb0000"/>
<rect x="144" y="0" width="18" height="18" fill="#ff1e1e"/>

<!-- Row 2 -->

<rect x="0" y="24" width="18" height="18" fill="#330000"/>
<rect x="24" y="24" width="18" height="18" fill="#550000"/>
<rect x="48" y="24" width="18" height="18" fill="#770000"/>
<rect x="72" y="24" width="18" height="18" fill="#990000"/>
<rect x="96" y="24" width="18" height="18" fill="#bb0000"/>
<rect x="120" y="24" width="18" height="18" fill="#ff1e1e"/>
<rect x="144" y="24" width="18" height="18" fill="#ff5555"/>

<!-- Copy these blocks later to expand -->
</g>

<text
x="40"
y="285"
fill="#ffffff"
font-size="18">

SYSTEM STATUS

</text>

<text
x="210"
y="285"
fill="#00ff66"
font-size="18">

ONLINE

</text>

<text
x="340"
y="285"
fill="#ffffff"
font-size="18">

YEAR

</text>

<text
x="410"
y="285"
fill="#ff1e1e"
font-size="18">

2026

</text>

</svg>
